<?xml version="1.0" standalone="no"?>
<!DOCTYPE svg PUBLIC "-//W3C//DTD SVG 20010904//EN"
 "http://www.w3.org/TR/2001/REC-SVG-20010904/DTD/svg10.dtd">
<svg version="1.0" xmlns="http://www.w3.org/2000/svg"
 width="512.000000pt" height="512.000000pt" viewBox="0 0 512.000000 512.000000"
 preserveAspectRatio="xMidYMid meet">

<g transform="translate(0.000000,512.000000) scale(0.100000,-0.100000)"
fill="#000000" stroke="none">
<path d="M2395 4674 c-16 -2 -70 -9 -120 -15 -426 -54 -859 -270 -1175 -588
-308 -310 -499 -688 -577 -1136 -24 -140 -24 -490 0 -630 78 -450 272 -832
581 -1141 309 -308 692 -503 1141 -581 140 -24 490 -24 630 0 449 78 832 273
1141 581 309 309 503 691 581 1141 24 140 24 490 0 630 -156 903 -821 1570
-1717 1720 -90 15 -420 28 -485 19z m290 -333 c150 -165 310 -415 355 -554 11
-34 10 -41 -7 -59 -31 -35 -228 -178 -472 -342 -414 -279 -535 -371 -690 -526
l-72 -73 -31 29 c-32 30 -58 80 -58 111 0 10 156 173 359 373 232 229 382 387
425 445 77 102 139 222 161 310 23 91 19 214 -9 303 -10 31 -1 28 39 -17z
m809 -129 c282 -617 210 -1038 -238 -1395 -122 -97 -191 -143 -416 -276 -96
-57 -220 -131 -275 -164 -256 -152 -446 -317 -520 -451 -132 -238 -92 -529 98
-720 46 -46 97 -85 142 -109 83 -43 65 -47 -63 -12 -370 102 -606 313 -697
625 -27 92 -28 315 -1 420 93 367 333 666 801 999 61 43 209 145 330 226 273
184 396 277 504 380 187 178 270 339 274 526 1 33 4 59 7 59 3 0 27 -49 54
-108z m-1938 -736 c106 -49 171 -157 161 -267 -3 -32 -19 -88 -37 -130 -55
-124 -39 -231 45 -294 l34 -27 -53 -66 c-138 -171 -224 -355 -262 -557 -29
-159 -3 -357 66 -496 16 -34 30 -63 30 -65 0 -35 -127 149 -201 291 -81 154
-141 333 -181 535 -19 91 -22 144 -23 410 -1 289 -3 308 -23 358 -32 77 -86
158 -154 228 -58 61 -59 63 -37 74 32 18 97 6 201 -36 l90 -36 27 25 c81 76
218 99 317 53z m2312 -214 c56 -138 67 -199 66 -357 0 -135 -2 -156 -25 -216
-98 -255 -282 -433 -695 -670 -86 -49 -157 -89 -159 -89 -12 0 -362 -194 -392
-217 -95 -73 -153 -189 -132 -267 48 -179 316 -227 637 -115 145 51 358 171
491 277 70 55 14 -12 -111 -133 -242 -237 -436 -359 -673 -421 -99 -27 -318
-27 -395 0 -230 78 -400 309 -400 541 0 127 49 231 162 343 94 93 214 175 508
343 520 298 602 350 730 453 210 171 315 329 343 518 6 43 14 75 17 70 4 -4
16 -31 28 -60z"/>
</g>
</svg>
